# xmcd CD database file
#
# Track frame offsets:
#	150
#	23638
#	41570
#	64180
#
# Disc length: 1131 seconds
#
# Revision: 0
# Processed by: cddbd v1.5PL3 Copyright (c) Steve Scherf et al.
# Submitted via: CDex 1.50
#
DISCID=2b046904
DTITLE=Yes mama ok - 非売品：放送局用ON AIR CD
DYEAR=1995
DGENRE=JPop
TTITLE0=コーヒーカップでランデブーって最高よ
TTITLE1=砂のプリン
TTITLE2=Tea Party
TTITLE3=Modern Living
EXTD=YEAR: 1995
EXTT0=
EXTT1=
EXTT2=
EXTT3=
PLAYORDER=
